HIERARCHY
ROOT hip
{
	OFFSET 0.000000 0.000000 0.000000 
	CHANNELS 6 Xposition Yposition Zposition Xrotation Zrotation Yrotation
	JOINT abdomen
	{
		OFFSET 0.000000 3.402643 0.000000 
		CHANNELS 3 Xrotation Zrotation Yrotation
		JOINT chest
		{
			OFFSET 0.000000 8.438565 -0.680529 
			CHANNELS 3 Xrotation Zrotation Yrotation
			JOINT neck
			{
				OFFSET 0.000000 10.207942 -0.272212 
				CHANNELS 3 Xrotation Zrotation Yrotation
				JOINT head
				{
					OFFSET 0.000000 3.130431 0.000000 
					CHANNELS 3 Xrotation Zrotation Yrotation
					End Site
					{
						OFFSET 0.000000 3.130435 0.000000 
					}
				}
			}
			JOINT lCollar
			{
				OFFSET 3.470700 6.669187 -0.816635 
				CHANNELS 3 Yrotation Zrotation Xrotation
				JOINT lShldr
				{
					OFFSET 3.198488 0.000000 0.000000 
					CHANNELS 3 Zrotation Yrotation Xrotation
					JOINT lForeArm
					{
						OFFSET 10.139888 0.000000 0.000000 
						CHANNELS 3 Yrotation Zrotation Xrotation
						JOINT lHand
						{
							OFFSET 8.370511 0.000000 0.000000 
							CHANNELS 3 Zrotation Yrotation Xrotation
							End Site
							{
								OFFSET 4.083176 0.000000 0.000000 
							}
						}
					}
				}
			}
			JOINT rCollar
			{
				OFFSET -3.470700 6.669187 -0.816635 
				CHANNELS 3 Yrotation Zrotation Xrotation
				JOINT rShldr
				{
					OFFSET -3.198488 0.000000 0.000000 
					CHANNELS 3 Zrotation Yrotation Xrotation
					JOINT rForeArm
					{
						OFFSET -10.139888 0.000000 0.000000 
						CHANNELS 3 Yrotation Zrotation Xrotation
						JOINT rHand
						{
							OFFSET -8.370511 0.000000 0.000000 
							CHANNELS 3 Zrotation Yrotation Xrotation
							End Site
							{
								OFFSET -4.083176 0.000000 0.000000 
							}
						}
					}
				}
			}
		}
	}
	JOINT lThigh
	{
		OFFSET 5.308129 -1.633274 1.361059 
		CHANNELS 3 Xrotation Zrotation Yrotation
		JOINT lShin
		{
			OFFSET -2.041588 -20.007561 0.000000 
			CHANNELS 3 Xrotation Zrotation Yrotation
			JOINT lFoot
			{
				OFFSET 0.000000 -19.190928 -1.224953 
				CHANNELS 3 Xrotation Yrotation Zrotation
				End Site
				{
					OFFSET 0.000000 -2.449906 4.627600 
				}
			}
		}
	}
	JOINT rThigh
	{
		OFFSET -5.308129 -1.633274 1.361059 
		CHANNELS 3 Xrotation Zrotation Yrotation
		JOINT rShin
		{
			OFFSET 2.041588 -20.007561 0.000000 
			CHANNELS 3 Xrotation Zrotation Yrotation
			JOINT rFoot
			{
				OFFSET 0.000000 -19.190928 -1.224953 
				CHANNELS 3 Xrotation Yrotation Zrotation
				End Site
				{
					OFFSET 0.000000 -2.449906 4.627600 
				}
			}
		}
	}
}
MOTION
Frames: 16
Frame Time: 0.033333
-43.615677 48.436363 27.815510 179.624619 -179.941666 -5.351569 0.000000 0.000000 0.000000 4.458553 3.632553 -0.684695 9.110446 1.201125 -0.507906 22.964386 3.357827 -1.741016 -0.798635 1.374882 4.688336 -75.910957 -12.164271 15.430818 -34.403717 -6.735574 17.698990 -0.923660 4.238853 -3.515648 -0.391667 10.451928 4.686980 55.614067 6.900852 24.291727 29.377958 14.106417 23.592800 -7.988603 -8.498341 -3.225483 -7.243103 7.993961 6.208004 39.970459 -0.915014 10.307442 -7.211277 0.873823 -13.230164 -12.711127 -5.730407 -6.691990 13.317723 3.649693 -27.480974 -0.238016 -0.034445 0.519946 
-43.314373 48.515026 27.423969 -179.748856 -179.329376 -5.586353 0.000000 0.000000 0.000000 5.281650 3.476426 -0.508655 9.890773 1.357373 -0.488376 22.420450 3.172283 -1.789774 -1.333030 1.530729 5.449876 -76.586983 -17.153950 17.814808 -37.387211 -6.051621 20.926237 0.119905 3.157732 -3.493588 0.268832 10.587395 5.352973 54.496548 9.261981 24.952650 29.886251 14.026553 22.227127 -8.539302 -6.594610 -3.313442 -10.239635 8.754849 7.360554 45.444176 -1.161573 9.766008 -0.765698 0.119061 -14.436601 -11.926173 -6.137688 -7.042957 14.041509 3.758584 -26.225094 -1.446686 -0.046187 0.538036 
-43.062412 48.621376 27.133404 -179.480026 -178.804794 -5.714291 0.000000 0.000000 0.000000 5.999521 3.525296 -0.420328 10.093513 1.279290 -0.185501 22.898403 3.250712 -1.584469 -1.517829 0.966921 6.112237 -76.623772 -21.861158 20.106213 -40.185684 -5.319571 26.407185 4.145982 0.357040 -3.567486 0.163523 10.522789 6.017653 53.847786 12.689438 24.454350 28.874741 14.239650 22.863035 -8.951556 -5.701346 -3.357528 -12.616714 9.374546 8.476673 47.811428 -1.172604 13.573408 5.244545 -0.731239 -17.375950 -11.111114 -6.307086 -7.085469 13.667617 3.619112 -25.838272 -1.732090 -0.049663 0.516045 
-42.832615 48.757267 26.843554 -179.416504 -178.095673 -5.784537 0.000000 0.000000 0.000000 6.435968 3.193229 -0.517862 10.491288 1.132792 -0.341730 23.088009 3.104284 -1.583940 -1.778854 0.947209 6.502032 -77.078087 -25.527195 21.846634 -42.857964 -4.421869 30.145775 5.966941 -0.434722 -3.648681 0.185526 10.298261 6.410582 53.934967 15.742490 23.643173 27.087061 14.043540 22.249723 -12.155451 -5.717792 -3.299253 -14.938423 9.782504 9.235099 49.373535 -1.247756 17.498997 11.603312 -1.999638 -19.912100 -10.415051 -6.568456 -7.050291 13.062563 3.368275 -25.752501 -2.035916 -0.049990 0.505789 
-42.763851 48.834068 26.520206 -178.827301 -177.179443 -5.162961 0.000000 0.000000 0.000000 7.090724 2.782791 -0.987061 11.069022 1.044815 -0.820354 23.173788 2.899338 -1.544945 -2.466435 1.620191 7.135871 -78.428459 -28.283779 23.422464 -44.728462 -3.982296 29.134514 7.864027 -1.023955 -3.738600 -0.223951 9.663615 7.041288 54.154099 17.621899 22.561647 26.942198 13.346923 22.451855 -13.132221 -5.169139 -3.325749 -16.427954 9.310236 9.270696 48.840679 -0.889392 25.733391 15.635116 -3.017640 -22.109106 -9.574299 -7.533209 -7.494857 13.460753 3.129539 -25.642870 -2.253891 -0.047661 0.948966 
-42.628094 48.948982 26.184879 -178.705719 -176.506821 -4.882417 0.000000 0.000000 0.000000 7.512675 2.557757 -1.465999 11.117236 0.351514 -0.947248 23.509592 3.309478 -1.457161 -2.386965 1.142466 7.525051 -77.869064 -30.543339 24.858530 -47.252800 -3.633989 27.657061 6.954275 -1.035849 -3.706367 -0.465434 9.048437 7.425341 54.516426 19.787273 21.016983 26.081997 12.626064 21.839708 -13.188896 -4.476524 -3.396767 -18.866154 9.735792 9.153729 48.948986 -1.131700 26.000978 16.868414 -2.656600 -18.085951 -8.777606 -8.122920 -7.850924 13.032217 3.181793 -25.461729 -2.555093 -0.038518 1.006163 
-42.498959 49.012344 25.833342 -178.241074 -176.058960 -4.836276 0.000000 0.000000 0.000000 8.091909 2.235709 -1.348535 11.273544 0.351515 -0.937482 24.049549 3.241169 -1.437667 -2.458642 1.418307 8.033240 -78.615517 -32.327541 25.508801 -47.720768 -3.693966 25.144644 5.653096 -0.269700 -3.628010 -0.343623 8.795787 7.934516 54.658638 21.127762 19.577814 25.865881 12.009962 21.035795 -12.774068 -4.388068 -3.413424 -20.560322 10.366905 8.678453 47.607304 -1.275958 25.060322 16.307428 -1.848550 -13.053777 -7.947162 -8.454053 -8.108172 13.201393 3.055343 -24.819643 -3.107974 -0.062831 1.219466 
-42.393284 49.008709 25.469282 -178.184357 -175.523880 -4.858665 0.000000 0.000000 0.000000 8.266422 2.138217 -1.182275 11.460098 -0.566384 -0.507884 23.975811 4.207109 -1.712975 -1.979044 -0.027694 8.169003 -77.789284 -33.283337 26.000700 -48.121593 -3.964721 24.604811 4.785510 -0.639964 -3.610540 0.453315 7.863313 8.021463 54.790222 21.972221 18.945601 25.722860 11.712927 20.249384 -12.887806 -5.447332 -3.309220 -22.040829 10.995992 7.920824 45.076298 -1.526268 23.862616 16.412546 -1.326376 -9.254016 -8.114228 -9.021951 -8.281679 14.453094 2.858750 -24.904772 -4.007496 -0.108278 1.796323 
-42.349209 48.979473 25.054205 -178.177597 -175.348877 -4.879694 0.000000 0.000000 0.000000 8.425344 1.786828 -1.016045 11.417371 -0.107413 -0.722673 24.229788 3.192186 -1.554675 -2.207905 0.723338 8.315448 -78.679184 -33.011444 25.851860 -48.098919 -3.693743 25.806744 3.951613 -0.929458 -3.577745 -0.066659 8.682110 8.226762 53.302792 23.551813 19.932245 25.713900 12.228864 19.343441 -13.392105 -5.936362 -3.248729 -23.211809 11.776762 6.862539 40.835678 -1.423447 25.859003 18.537857 -1.064802 -6.667371 -8.163000 -9.275707 -8.417387 15.653704 2.831748 -24.721561 -5.023009 -0.146909 2.358387 
-42.378330 48.968372 24.600389 -177.926270 -174.990204 -5.058990 0.000000 0.000000 0.000000 8.669476 1.738143 -0.722916 11.909103 -0.742172 -0.371189 23.123905 3.845528 -1.908522 -2.029154 -0.560852 8.520164 -78.386635 -32.271893 24.593395 -46.983738 -3.772587 28.125406 4.135051 -2.474083 -3.631396 0.733306 8.161303 8.400068 52.926281 23.702097 19.582548 25.894617 11.924214 20.771662 -12.953198 -5.776445 -3.275976 -22.596197 12.381887 5.936940 35.315823 -1.713978 23.590853 18.406528 -1.062328 -6.769241 -8.033981 -9.721250 -8.525485 16.522156 2.460081 -25.505604 -5.510344 -0.197928 3.116013 
-42.418030 48.898472 24.143578 -177.893555 -174.925446 -5.470985 0.000000 0.000000 0.000000 8.954735 1.347618 -0.429798 11.730061 -0.283199 -0.312544 23.670622 2.889536 -1.574204 -1.891149 0.281419 8.765117 -78.675728 -30.654402 24.143822 -46.114529 -3.807648 28.764263 2.563100 -0.791580 -3.534626 0.658280 8.524816 8.684653 52.515141 24.480223 19.774897 26.338194 11.897329 21.697577 -12.952530 -5.802719 -3.259765 -21.560101 13.308901 5.463416 27.807192 -2.103209 24.655821 19.731436 -1.209352 -7.119348 -8.192833 -9.940423 -8.561450 17.945990 2.351534 -25.012205 -6.566031 -0.270068 3.797712 
-42.524006 48.843033 23.658951 -178.072708 -174.956451 -5.686704 0.000000 0.000000 0.000000 9.017235 1.347642 -0.263599 11.621246 -0.449219 -0.019607 23.891439 3.065279 -1.554690 -1.396135 -0.364804 8.815809 -78.182968 -28.774374 22.736874 -43.761089 -4.342002 29.226789 3.858559 -0.846757 -3.580225 0.743449 8.302647 8.738148 52.577785 24.930773 20.014389 26.703613 11.866961 21.864582 -12.328478 -6.053296 -3.258387 -20.111595 14.018886 4.789754 19.377775 -2.369830 24.539173 22.106817 -1.596680 -8.244125 -8.269525 -10.074767 -8.500079 18.958879 2.212936 -24.668135 -7.445917 -0.342507 4.534184 
-42.686424 48.748249 23.149513 -178.507370 -175.143433 -5.959099 0.000000 0.000000 0.000000 8.766315 1.572262 -0.117143 11.916644 -0.810515 0.507762 22.809189 3.563025 -1.624028 -0.930853 -1.819059 8.567038 -76.843468 -25.886269 20.461468 -41.302143 -4.785697 30.227432 4.492509 -0.335754 -3.591885 1.182531 8.328563 8.470008 52.105507 24.576714 20.494652 27.966099 12.012859 21.689226 -11.776590 -6.413813 -3.232608 -17.138630 14.726521 4.835464 8.391785 -2.992680 22.549847 23.582632 -1.792996 -8.670938 -8.688234 -10.160938 -8.352782 20.152956 2.058700 -24.494640 -8.317467 -0.418574 5.433231 
-42.945263 48.622749 22.585371 -178.691376 -175.725616 -5.876502 0.000000 0.000000 0.000000 8.879404 1.865220 -0.224490 11.881387 -0.341780 0.566396 22.961824 2.762896 -1.358668 -1.090319 -1.658172 8.683139 -76.921257 -22.938395 17.867382 -38.248573 -4.929916 30.209339 5.851101 0.625912 -3.607227 0.910199 8.726631 8.578929 51.730503 24.702965 20.872211 29.282482 11.909719 21.898716 -11.585316 -6.765134 -3.216231 -14.744345 15.388469 4.938813 -1.124455 -3.398146 22.104979 26.855680 -2.385695 -10.022422 -8.492730 -10.179858 -8.612007 21.295454 2.345396 -24.297085 -9.380102 -0.546370 6.239586 
-43.227505 48.541752 22.034628 -179.608246 -176.460938 -5.381919 0.000000 0.000000 0.000000 8.462547 2.324097 -0.586248 11.700267 0.146481 0.410180 22.718300 2.333543 -1.113948 -1.543387 -1.459367 8.319185 -76.782112 -19.727455 15.625572 -34.151245 -5.285598 30.457268 8.844024 2.612304 -3.544259 0.434639 9.168185 8.236176 51.519699 24.755581 21.399681 30.505320 11.747341 23.133608 -9.180372 -6.658459 -3.283842 -17.390379 16.296515 4.130533 -1.465842 -3.788249 20.078295 27.975534 -3.060453 -12.263058 -8.697996 -9.799867 -8.571504 21.541458 2.420876 -24.961582 -9.739446 -0.641828 7.127602 
-43.635223 48.364540 21.527697 -179.569656 -176.976227 -2.787568 0.000000 0.000000 0.000000 8.775325 2.809453 -2.669031 11.950229 0.195291 -0.849604 22.230385 2.997710 -0.860242 -2.628488 -2.379478 8.726384 -75.049904 -16.501169 13.591218 -32.079247 -6.072784 26.613607 17.944633 1.126971 -3.823336 -0.805568 8.865426 8.558963 52.184170 25.624067 22.063299 31.162741 11.669958 22.487904 -10.214437 -7.381257 -3.207512 -19.400118 15.299299 2.255428 -1.872893 -3.337326 17.986544 30.161306 -3.938727 -14.559153 -8.083412 -10.054009 -9.092744 22.954231 2.487096 -26.811998 -10.636931 -0.840789 8.767785 
